<svg xmlns="http://www.w3.org/2000/svg" width="40" height="40" viewBox="0 0 40 40"><defs><style>.a,.e{fill:none;}.a,.b,.c{stroke:#ff8285;}.a{stroke-width:2.5px;}.b,.c{fill:#ff8285;stroke-width:0.5px;}.c{fill-rule:evenodd;}.d{stroke:none;}</style></defs><g transform="translate(-940 -448)"><g transform="translate(12 24)"><g class="a" transform="translate(928 424)"><circle class="d" cx="20" cy="20" r="20"/><circle class="e" cx="20" cy="20" r="18.75"/></g></g><g transform="translate(951.5 460)"><path class="b" d="M5.5,5.5A.5.5,0,0,1,6,6v6a.5.5,0,0,1-1,0V6A.5.5,0,0,1,5.5,5.5ZM8,5.5a.5.5,0,0,1,.5.5v6a.5.5,0,0,1-1,0V6A.5.5,0,0,1,8,5.5ZM11,6a.5.5,0,0,0-1,0v6a.5.5,0,0,0,1,0Z" transform="translate(1 1.375)"/><path class="c" d="M16.5,3.4a1.144,1.144,0,0,1-1.154,1.133h-.577v10.2A2.287,2.287,0,0,1,12.462,17H5.538a2.287,2.287,0,0,1-2.308-2.267V4.533H2.654A1.144,1.144,0,0,1,1.5,3.4V2.267A1.144,1.144,0,0,1,2.654,1.133H6.692A1.144,1.144,0,0,1,7.846,0h2.308a1.144,1.144,0,0,1,1.154,1.133h4.038A1.144,1.144,0,0,1,16.5,2.267ZM4.521,4.533,4.385,4.6V14.733a1.144,1.144,0,0,0,1.154,1.133h6.923a1.144,1.144,0,0,0,1.154-1.133V4.6l-.136-.067ZM2.654,3.4V2.267H15.346V3.4Z" transform="translate(0 0)"/></g></g></svg>