<svg xmlns="http://www.w3.org/2000/svg" width="178" height="149" viewBox="0 0 178 149"><defs><style>.a{fill:#fff4db;}.b,.f{fill:none;}.b{stroke:#ffedc2;stroke-width:2px;}.c{fill:#113358;}.d{fill:#ffd269;}.e{stroke:none;}</style></defs><g transform="translate(-881 -377)"><circle class="a" cx="39.5" cy="39.5" r="39.5" transform="translate(881 377)"/><g class="b" transform="translate(928 395)"><circle class="e" cx="65.5" cy="65.5" r="65.5"/><circle class="f" cx="65.5" cy="65.5" r="64.5"/></g><g transform="translate(458.208 33.378)"><path class="c" d="M526.5,436.94A15.361,15.361,0,1,0,541.858,452.3,15.362,15.362,0,0,0,526.5,436.94Zm0,25.977A10.616,10.616,0,1,1,537.113,452.3,10.616,10.616,0,0,1,526.5,462.917Z" transform="translate(-8.731 -19.707)"/><g transform="translate(501.106 385.68)"><path class="c" d="M529.01,404.228c0,7.392,5.311,13.067,14.16,14.941l-2.551,4.32c-6.715-1.717-11.712-5.362-14.263-10.62-2.6,5.258-7.6,8.9-14.315,10.62l-2.551-4.32c8.85-1.874,14.159-7.549,14.159-14.941V396.94h5.362Z" transform="translate(-509.489 -396.94)"/></g><path class="c" d="M469.792,397.039v4.536H491.78v6.409H469.792v15.481h26.524v-4.536H474.327v-6.409h21.988v-15.48Z" transform="translate(0 -11.28)"/><g transform="translate(469.792 419.381)"><rect class="c" width="26.524" height="4.536" transform="translate(0 0)"/><rect class="c" width="26.524" height="4.536" transform="translate(0 10.945)"/><rect class="c" width="26.524" height="4.536" transform="translate(0 21.89)"/></g><circle class="d" cx="6.881" cy="6.881" r="6.881" transform="translate(510.885 425.713)"/><path class="c" d="M469.792,377.081h7.789l23.927-25.439,24.453,25.439h7.165L501.46,343.622Z" transform="translate(0 0)"/></g></g></svg>