<svg xmlns="http://www.w3.org/2000/svg" width="146.671" height="32.932" viewBox="0 0 146.671 32.932"><defs><style>.a{fill:#eee;}.b{fill:#ffd269;}</style></defs><g transform="translate(-512 -1178.163)"><path class="a" d="M247.838,327.489h-3.984l17.04-30.349,17.031,30.349h-3.984l-13.051-23.363Z" transform="translate(304.664 882.144)"/><g transform="translate(589.219 1179.677)"><rect class="a" width="29.904" height="3.587" transform="translate(0 0)"/><path class="a" d="M420.945,361.4v16.454h29.9v-3.588H424.533v-9.526h26.316v-3.588h-29.9Z" transform="translate(-420.945 -348.038)"/></g><g transform="translate(512 1179.676)"><rect class="a" width="29.904" height="3.587" transform="translate(0 26.23)"/><path class="a" d="M79.612,299v3.589h26.316v9.526H79.612V315.7h29.9V299Z" transform="translate(-79.612 -298.996)"/></g><path class="a" d="M598.433,297.7A16.466,16.466,0,1,0,614.9,314.165,16.466,16.466,0,0,0,598.433,297.7Zm0,29.232A12.766,12.766,0,1,1,611.2,314.165,12.766,12.766,0,0,1,598.433,326.931Z" transform="translate(43.771 880.464)"/><circle class="b" cx="8.132" cy="8.132" r="8.132" transform="translate(634.073 1186.498)"/></g></svg>